<?xml version="1.0" encoding="utf-8"?>
<!-- Generator: Adobe Illustrator 19.2.1, SVG Export Plug-In . SVG Version: 6.00 Build 0)  -->
<svg version="1.1" id="Layer_1" xmlns="http://www.w3.org/2000/svg" xmlns:xlink="http://www.w3.org/1999/xlink" x="0px" y="0px"
	 viewBox="0 0 642.7 142" style="enable-background:new 0 0 642.7 142;" xml:space="preserve">
<style type="text/css">
	.st0{fill:#F58220;}
	.st1{fill:#EA1C2D;}
	.st2{fill:#FFD200;}
	.st3{fill:#C1D52F;}
	.st4{fill:#AC1E2D;}
	.st5{fill:#00A94F;}
	.st6{fill:#C9187E;}
	.st7{fill:#008445;}
	.st8{fill:#873795;}
	.st9{fill:#FFFFFF;}
	.st10{fill:#F99D25;}
	.st11{fill:#E32726;}
</style>
<g>
	<g>
		<g>
			<polygon class="st0" points="75.3,44.7 50.9,2.8 99.7,2.8 			"/>
			<polygon class="st1" points="99.7,2.8 75.3,44.7 124.1,44.7 			"/>
			<polygon class="st2" points="50.9,2.8 26.5,44.7 75.3,44.7 			"/>
			<polygon class="st3" points="50.9,86.5 26.5,44.7 75.3,44.7 			"/>
			<polygon class="st4" points="99.7,86.5 75.3,44.7 124.1,44.7 			"/>
			<polygon class="st5" points="26.5,44.7 2.1,86.5 50.9,86.5 			"/>
			<polygon class="st6" points="124.1,44.7 99.7,86.5 148.5,86.5 			"/>
			<polygon class="st7" points="26.5,128.3 2.1,86.5 50.9,86.5 			"/>
			<polygon class="st8" points="124.1,128.3 99.7,86.5 148.5,86.5 			"/>
			<polygon class="st9" points="75.3,86.5 50.9,128.3 99.7,128.3 			"/>
			<polygon class="st10" points="148.5,86.5 124.1,128.3 172.9,128.3 			"/>
		</g>
	</g>
	<g>
		<path class="st9" d="M237.7,27.1h20.4l43.1,101.2h-23.1l-9.2-22.5h-42.5l-9.2,22.5h-22.5L237.7,27.1z M261,86.4l-13.4-32.6
			l-13.4,32.6H261z"/>
		<path class="st9" d="M315.4,23.5h21.8v104.8h-21.8V23.5z"/>
		<path class="st9" d="M358.2,23.5h23v19.4h-23V23.5z M358.8,51.4h21.8v77h-21.8V51.4z"/>
		<path class="st9" d="M428.1,129.8c-5.5,0-11-0.9-16.7-2.8c-5.7-1.9-11.1-4.8-16.3-8.8l9.3-14.4c4.2,3.1,8.4,5.4,12.6,6.9
			c4.2,1.5,8.1,2.3,11.7,2.3c3.2,0,5.5-0.5,7-1.6c1.5-1.1,2.2-2.4,2.2-4.2v-0.3c0-1.1-0.4-2.2-1.3-3s-2-1.6-3.5-2.2
			c-1.5-0.6-3.2-1.2-5.1-1.8c-1.9-0.6-3.9-1.2-6-1.9c-2.7-0.8-5.4-1.7-8.1-2.8c-2.7-1.1-5.2-2.5-7.4-4.3c-2.2-1.8-4-3.9-5.4-6.5
			c-1.4-2.6-2.1-5.7-2.1-9.5v-0.3c0-3.9,0.7-7.4,2.2-10.4c1.5-3,3.5-5.6,6-7.7c2.5-2.1,5.5-3.7,9-4.7c3.4-1.1,7.1-1.6,10.9-1.6
			c4.9,0,9.8,0.8,14.9,2.4s9.6,3.8,13.9,6.5l-8.3,15.1c-3.8-2.2-7.6-3.9-11.2-5.2c-3.6-1.3-6.8-1.9-9.6-1.9c-2.7,0-4.7,0.5-6,1.5
			c-1.3,1-2,2.3-2,3.8v0.3c0,1.1,0.4,2,1.3,2.8c0.9,0.8,2,1.6,3.4,2.3c1.4,0.7,3.1,1.4,5,2c1.9,0.6,3.9,1.3,6,2.1
			c2.7,0.9,5.4,1.9,8.2,3.1c2.8,1.2,5.3,2.7,7.5,4.4c2.2,1.7,4,3.8,5.5,6.3c1.4,2.5,2.2,5.5,2.2,9v0.3c0,4.3-0.7,8-2.2,11.1
			c-1.5,3.1-3.6,5.7-6.2,7.7c-2.7,2-5.8,3.5-9.3,4.5C436.2,129.3,432.3,129.8,428.1,129.8z"/>
		<path class="st9" d="M511,130.1c-5.9,0-11.4-1-16.5-3.1c-5.1-2.1-9.5-4.9-13.1-8.5c-3.7-3.6-6.6-7.8-8.7-12.6
			c-2.1-4.8-3.2-10-3.2-15.6V90c0-5.6,1.1-10.7,3.2-15.6c2.1-4.8,5-9.1,8.8-12.7c3.7-3.6,8.1-6.5,13.2-8.6
			c5.1-2.1,10.6-3.2,16.7-3.2c5.9,0,11.4,1,16.5,3.1c5.1,2.1,9.5,4.9,13.1,8.5c3.7,3.6,6.6,7.8,8.7,12.6c2.1,4.8,3.2,10,3.2,15.6V90
			c0,5.6-1.1,10.7-3.2,15.6c-2.1,4.8-5,9.1-8.8,12.7c-3.7,3.6-8.1,6.5-13.2,8.6C522.6,129,517,130.1,511,130.1z M511.3,111.2
			c3.2,0,6-0.5,8.4-1.7c2.4-1.1,4.5-2.6,6.2-4.5c1.7-1.9,3-4.1,3.9-6.7c0.9-2.5,1.4-5.2,1.4-8.1V90c0-2.9-0.5-5.6-1.4-8.1
			c-1-2.5-2.3-4.8-4.2-6.7c-1.8-2-3.9-3.5-6.4-4.7c-2.4-1.1-5.2-1.7-8.3-1.7c-3.2,0-6,0.6-8.4,1.7c-2.4,1.1-4.5,2.6-6.2,4.5
			c-1.7,1.9-3,4.1-3.9,6.7c-0.9,2.5-1.4,5.2-1.4,8.1V90c0,2.9,0.5,5.6,1.4,8.1c1,2.5,2.3,4.8,4.2,6.7c1.8,2,4,3.5,6.5,4.7
			C505.6,110.7,508.3,111.2,511.3,111.2z"/>
		<path class="st9" d="M568.6,51.4h21.8v10.9c1.2-1.6,2.6-3.2,4.1-4.7c1.5-1.5,3.1-2.8,5-3.9c1.8-1.1,3.8-2.1,6-2.7
			c2.2-0.7,4.7-1,7.5-1c8.3,0,14.8,2.5,19.3,7.6c4.5,5.1,6.8,12.1,6.8,21v49.8h-21.8V85.4c0-5.2-1.1-9.1-3.4-11.7
			c-2.3-2.6-5.6-3.9-9.8-3.9c-4.2,0-7.5,1.3-10,3.9c-2.4,2.6-3.7,6.5-3.7,11.7v42.9h-21.8V51.4z"/>
	</g>
	<polygon class="st11" points="148.5,86.5 172.9,128.3 173,128.3 190.7,86.5 	"/>
</g>
</svg>
